<svg width="22" height="18" viewBox="0 0 22 18" fill="none" xmlns="http://www.w3.org/2000/svg">
<path fill-rule="evenodd" clip-rule="evenodd" d="M17.67 14.185L20.425 16.94L19.576 17.788L2.85 1.06201L3.697 0.212006L6.552 3.06701C7.932 2.51501 9.432 2.21201 11 2.21201C15.808 2.21201 19.972 5.06001 22 9.21201C21.0217 11.2233 19.5276 12.9393 17.67 14.185ZM7.486 4.00201L9.15 5.66601C9.90493 5.27133 10.7662 5.12799 11.6082 5.25684C12.4503 5.3857 13.2292 5.78002 13.8316 6.38239C14.434 6.98476 14.8283 7.7637 14.9572 8.60578C15.086 9.44785 14.9427 10.3091 14.548 11.064L16.803 13.319C18.377 12.319 19.707 10.916 20.648 9.21301C18.686 5.66201 15.034 3.41201 11 3.41201C9.80408 3.41276 8.61659 3.61214 7.486 4.00201ZM13.638 10.154C13.8164 9.65471 13.8495 9.11501 13.7332 8.59769C13.6169 8.08037 13.3562 7.6067 12.9812 7.23177C12.6063 6.85685 12.1326 6.59608 11.6153 6.47982C11.098 6.36355 10.5583 6.39656 10.059 6.57501L13.638 10.154ZM15.448 15.358C14.068 15.91 12.568 16.213 11 16.213C6.192 16.213 2.028 13.365 0 9.21301C0.978321 7.2017 2.47241 5.48573 4.33 4.24001L5.197 5.10701C3.5915 6.1314 2.26931 7.543 1.352 9.21201C3.314 12.762 6.966 15.012 11 15.012C12.1959 15.0113 13.3834 14.8119 14.514 14.422L15.448 15.358ZM7.453 7.36201L8.362 8.27201C8.18355 8.7713 8.15055 9.311 8.26681 9.82832C8.38308 10.3456 8.64384 10.8193 9.01877 11.1942C9.39369 11.5692 9.86737 11.8299 10.3847 11.9462C10.902 12.0625 11.4417 12.0295 11.941 11.851L12.851 12.759C12.0961 13.1537 11.2348 13.297 10.3928 13.1682C9.5507 13.0393 8.77175 12.645 8.16939 12.0426C7.56702 11.4403 7.17269 10.6613 7.04384 9.81923C6.91498 8.97716 7.05833 8.11694 7.453 7.36201Z" fill="black"/>
</svg>
