<svg width="10" height="10" viewBox="0 0 10 10" fill="none" xmlns="http://www.w3.org/2000/svg">
<path d="M8.7714 5.62855H5.62855V8.7714C5.62855 8.93811 5.56232 9.09799 5.44444 9.21587C5.32656 9.33375 5.16668 9.39998 4.99998 9.39998C4.83327 9.39998 4.67339 9.33375 4.55551 9.21587C4.43763 9.09799 4.3714 8.93811 4.3714 8.7714V5.62855H1.22855C1.06184 5.62855 0.90196 5.56232 0.78408 5.44444C0.6662 5.32656 0.599976 5.16668 0.599976 4.99998C0.599976 4.83327 0.6662 4.67339 0.78408 4.55551C0.90196 4.43763 1.06184 4.3714 1.22855 4.3714H4.3714V1.22855C4.3714 1.06184 4.43763 0.90196 4.55551 0.78408C4.67339 0.6662 4.83327 0.599976 4.99998 0.599976C5.16668 0.599976 5.32656 0.6662 5.44444 0.78408C5.56232 0.90196 5.62855 1.06184 5.62855 1.22855V4.3714H8.7714C8.93811 4.3714 9.09799 4.43763 9.21587 4.55551C9.33375 4.67339 9.39998 4.83327 9.39998 4.99998C9.39998 5.16668 9.33375 5.32656 9.21587 5.44444C9.09799 5.56232 8.93811 5.62855 8.7714 5.62855Z" fill="#7E49FF"/>
</svg>
