<svg width="19" height="19" viewBox="0 0 19 19" fill="none" xmlns="http://www.w3.org/2000/svg">
<path d="M7.6722 11.2778L17.451 1.49902M7.6722 11.2778L10.7836 17.5007C10.8226 17.5858 10.8853 17.658 10.9641 17.7085C11.0429 17.7591 11.1345 17.786 11.2281 17.786C11.3218 17.786 11.4134 17.7591 11.4922 17.7085C11.571 17.658 11.6336 17.5858 11.6726 17.5007L17.451 1.49902M7.6722 11.2778L1.44931 8.1664C1.3642 8.1274 1.29207 8.06478 1.24151 7.98598C1.19094 7.90719 1.16406 7.81553 1.16406 7.72191C1.16406 7.62829 1.19094 7.53663 1.24151 7.45784C1.29207 7.37904 1.3642 7.31642 1.44931 7.27742L17.451 1.49902" stroke="#292653" stroke-width="1.77797" stroke-linecap="round" stroke-linejoin="round"/>
</svg>
